<svg width="310" height="103" viewBox="0 0 310 103" fill="none" xmlns="http://www.w3.org/2000/svg">
<path d="M235.466 89.3863V102H229.415V80.1818H235.182V84.0312H235.438C235.92 82.7623 236.73 81.7585 237.866 81.0199C239.003 80.2718 240.381 79.8977 242 79.8977C243.515 79.8977 244.836 80.2291 245.963 80.892C247.09 81.5549 247.966 82.5019 248.591 83.7329C249.216 84.9545 249.528 86.4129 249.528 88.1079V102H243.477V89.1875C243.487 87.8522 243.146 86.8106 242.455 86.0625C241.763 85.3049 240.812 84.9261 239.599 84.9261C238.785 84.9261 238.065 85.1013 237.44 85.4517C236.825 85.8021 236.342 86.3134 235.991 86.9858C235.651 87.6487 235.475 88.4488 235.466 89.3863Z" fill="#7F3A54"/>
<path d="M264.156 102.426C261.949 102.426 260.041 101.957 258.431 101.02C256.831 100.073 255.595 98.7566 254.724 97.071C253.853 95.3759 253.417 93.411 253.417 91.1761C253.417 88.9223 253.853 86.9526 254.724 85.267C255.595 83.5719 256.831 82.2557 258.431 81.3182C260.041 80.3712 261.949 79.8977 264.156 79.8977C266.362 79.8977 268.265 80.3712 269.866 81.3182C271.476 82.2557 272.716 83.5719 273.587 85.267C274.459 86.9526 274.894 88.9223 274.894 91.1761C274.894 93.411 274.459 95.3759 273.587 97.071C272.716 98.7566 271.476 100.073 269.866 101.02C268.265 101.957 266.362 102.426 264.156 102.426ZM264.184 97.7386C265.188 97.7386 266.026 97.4545 266.698 96.8863C267.371 96.3087 267.877 95.5227 268.218 94.5284C268.568 93.5341 268.744 92.4024 268.744 91.1335C268.744 89.8646 268.568 88.7329 268.218 87.7386C267.877 86.7443 267.371 85.9583 266.698 85.3807C266.026 84.803 265.188 84.5142 264.184 84.5142C263.171 84.5142 262.318 84.803 261.627 85.3807C260.945 85.9583 260.429 86.7443 260.079 87.7386C259.738 88.7329 259.567 89.8646 259.567 91.1335C259.567 92.4024 259.738 93.5341 260.079 94.5284C260.429 95.5227 260.945 96.3087 261.627 96.8863C262.318 97.4545 263.171 97.7386 264.184 97.7386Z" fill="#7F3A54"/>
<path d="M282.586 102L276.648 80.1818H282.771L286.151 94.8409H286.35L289.873 80.1818H295.881L299.461 94.7557H299.646L302.969 80.1818H309.077L303.154 102H296.748L292.998 88.2784H292.728L288.978 102H282.586Z" fill="#7F3A54"/>
<path d="M0.0681763 71V1.18181H28.0227C33.1591 1.18181 37.4432 1.94317 40.875 3.4659C44.3068 4.98863 46.8864 7.10227 48.6136 9.80681C50.3409 12.4886 51.2045 15.5795 51.2045 19.0795C51.2045 21.8068 50.6591 24.2045 49.5682 26.2727C48.4773 28.3182 46.9773 30 45.0682 31.3182C43.1818 32.6136 41.0227 33.5341 38.5909 34.0795V34.7614C41.25 34.875 43.7386 35.625 46.0568 37.0114C48.3977 38.3977 50.2955 40.3409 51.75 42.8409C53.2045 45.3182 53.9318 48.2727 53.9318 51.7045C53.9318 55.4091 53.0114 58.7159 51.1704 61.625C49.3523 64.5114 46.6591 66.7954 43.0909 68.4773C39.5227 70.1591 35.125 71 29.8977 71H0.0681763ZM14.8295 58.9318H26.8636C30.9773 58.9318 33.9773 58.1477 35.8636 56.5795C37.75 54.9886 38.6932 52.875 38.6932 50.2386C38.6932 48.3068 38.2273 46.6023 37.2955 45.125C36.3636 43.6477 35.0341 42.4886 33.3068 41.6477C31.6023 40.8068 29.5682 40.3864 27.2045 40.3864H14.8295V58.9318ZM14.8295 30.3977H25.7727C27.7955 30.3977 29.5909 30.0454 31.1591 29.3409C32.75 28.6136 34 27.5909 34.9091 26.2727C35.8409 24.9545 36.3068 23.375 36.3068 21.5341C36.3068 19.0114 35.4091 16.9773 33.6136 15.4318C31.8409 13.8864 29.3182 13.1136 26.0455 13.1136H14.8295V30.3977Z" fill="#7F3A54"/>
<path d="M127.696 36.0909C127.696 43.7045 126.253 50.1818 123.366 55.5227C120.503 60.8636 116.594 64.9432 111.639 67.7614C106.707 70.5568 101.162 71.9545 95.0028 71.9545C88.7983 71.9545 83.2301 70.5454 78.2983 67.7273C73.3665 64.9091 69.4687 60.8295 66.6051 55.4886C63.7415 50.1477 62.3097 43.6818 62.3097 36.0909C62.3097 28.4773 63.7415 22 66.6051 16.6591C69.4687 11.3182 73.3665 7.24999 78.2983 4.45454C83.2301 1.63636 88.7983 0.227264 95.0028 0.227264C101.162 0.227264 106.707 1.63636 111.639 4.45454C116.594 7.24999 120.503 11.3182 123.366 16.6591C126.253 22 127.696 28.4773 127.696 36.0909ZM112.73 36.0909C112.73 31.1591 111.991 27 110.514 23.6136C109.06 20.2273 107.003 17.6591 104.344 15.9091C101.685 14.1591 98.571 13.2841 95.0028 13.2841C91.4347 13.2841 88.321 14.1591 85.6619 15.9091C83.0028 17.6591 80.9347 20.2273 79.4574 23.6136C78.0028 27 77.2756 31.1591 77.2756 36.0909C77.2756 41.0227 78.0028 45.1818 79.4574 48.5682C80.9347 51.9545 83.0028 54.5227 85.6619 56.2727C88.321 58.0227 91.4347 58.8977 95.0028 58.8977C98.571 58.8977 101.685 58.0227 104.344 56.2727C107.003 54.5227 109.06 51.9545 110.514 48.5682C111.991 45.1818 112.73 41.0227 112.73 36.0909Z" fill="#7F3A54"/>
<path d="M202.79 36.0909C202.79 43.7045 201.347 50.1818 198.46 55.5227C195.597 60.8636 191.688 64.9432 186.733 67.7614C181.801 70.5568 176.256 71.9545 170.097 71.9545C163.892 71.9545 158.324 70.5454 153.392 67.7273C148.46 64.9091 144.562 60.8295 141.699 55.4886C138.835 50.1477 137.403 43.6818 137.403 36.0909C137.403 28.4773 138.835 22 141.699 16.6591C144.562 11.3182 148.46 7.24999 153.392 4.45454C158.324 1.63636 163.892 0.227264 170.097 0.227264C176.256 0.227264 181.801 1.63636 186.733 4.45454C191.688 7.24999 195.597 11.3182 198.46 16.6591C201.347 22 202.79 28.4773 202.79 36.0909ZM187.824 36.0909C187.824 31.1591 187.085 27 185.608 23.6136C184.153 20.2273 182.097 17.6591 179.438 15.9091C176.778 14.1591 173.665 13.2841 170.097 13.2841C166.528 13.2841 163.415 14.1591 160.756 15.9091C158.097 17.6591 156.028 20.2273 154.551 23.6136C153.097 27 152.369 31.1591 152.369 36.0909C152.369 41.0227 153.097 45.1818 154.551 48.5682C156.028 51.9545 158.097 54.5227 160.756 56.2727C163.415 58.0227 166.528 58.8977 170.097 58.8977C173.665 58.8977 176.778 58.0227 179.438 56.2727C182.097 54.5227 184.153 51.9545 185.608 48.5682C187.085 45.1818 187.824 41.0227 187.824 36.0909Z" fill="#7F3A54"/>
<path d="M213.724 71V1.18181H228.486V31.9659H229.406L254.531 1.18181H272.224L246.315 32.4432L272.531 71H254.872L235.747 42.2954L228.486 51.1591V71H213.724Z" fill="#7F3A54"/>
</svg>
