<svg width="96" height="96" viewBox="0 0 96 96" fill="none" xmlns="http://www.w3.org/2000/svg">
<g clip-path="url(#clip0_3_23)">
<path d="M52 36H70L68 44H52V80H44V44H28V36H44V28.512C44 21.38 44.744 18.792 46.136 16.184C47.5 13.6072 49.6072 11.5 52.184 10.136C54.792 8.744 57.38 8 64.512 8C66.6 8 68.432 8.2 70 8.6V16H64.512C59.216 16 57.604 16.312 55.96 17.192C54.744 17.84 53.84 18.744 53.192 19.96C52.312 21.604 52 23.216 52 28.512V36Z" fill="white"/>
</g>
<defs>
<clipPath id="clip0_3_23">
<rect width="96" height="96" fill="white"/>
</clipPath>
</defs>
</svg>
