<svg width="96" height="96" viewBox="0 0 96 96" fill="none" xmlns="http://www.w3.org/2000/svg">
<path d="M62.9925 30C64.65 29.9955 65.9955 31.335 66 32.9925C66.0045 34.65 64.665 35.9955 63.0075 36C61.35 36.0045 60.0045 34.665 60 33.0075C59.9955 31.35 61.335 30.0045 62.9925 30Z" fill="white"/>
<path d="M47.964 33C56.247 32.9805 62.9805 39.681 63 47.964C63.0195 56.247 56.319 62.9805 48.036 63C39.753 63.0195 33.0195 56.319 33 48.036C32.9805 39.753 39.681 33.0195 47.964 33ZM48.021 57C52.9905 56.988 57.0105 52.9485 57 47.979C56.988 43.0095 52.9485 38.988 47.979 39C43.0095 39.012 38.988 43.0515 39 48.021C39.012 52.992 43.0515 57.012 48.021 57Z" fill="white"/>
<path d="M78 48V48.27C78 75.8415 75.8415 78 48.27 78H47.73C20.1585 78 18 75.8415 18 48.27V47.73C18 20.1585 20.1585 18 47.73 18H48C75.822 18 78 20.178 78 48ZM72 54V42C72 25.3065 70.6935 24 54 24H42C25.3065 24 24 25.3065 24 42V54C24 70.6935 25.3065 72 42 72H54C70.6935 72 72 70.6935 72 54Z" fill="white"/>
</svg>
