<svg width="130" height="36" viewBox="0 0 130 36" fill="none" xmlns="http://www.w3.org/2000/svg">
<path fill-rule="evenodd" clip-rule="evenodd" d="M117.737 15C116.081 15 114.737 13.656 114.737 12C114.737 10.344 116.081 9 117.737 9C119.393 9 120.737 10.344 120.737 12C120.737 13.656 119.393 15 117.737 15ZM117.737 7.5C115.251 7.5 113.237 9.5145 113.237 12C113.237 14.4855 115.251 16.5 117.737 16.5C120.222 16.5 122.237 14.4855 122.237 12C122.237 9.5145 120.222 7.5 117.737 7.5ZM107.237 11.403C107.237 6.1275 112.143 1.5 117.737 1.5C123.33 1.5 128.237 6.1275 128.237 11.403C128.237 16.5855 124.392 22.7175 117.737 33.1935C111.003 22.584 107.237 16.5855 107.237 11.403ZM117.737 0C111.44 0 105.737 5.1045 105.737 11.403C105.737 17.7 110.94 25.218 117.737 36C124.533 25.218 129.737 17.7 129.737 11.403C129.737 5.1045 124.035 0 117.737 0Z" fill="#7F3A54"/>
<path d="M2.91335 36.0001L0 25.8182H2.35156L4.03693 32.8928H4.12145L5.98082 25.8182H7.99432L9.84872 32.9077H9.93821L11.6236 25.8182H13.9751L11.0618 36.0001H8.96378L7.02486 29.3431H6.94531L5.01136 36.0001H2.91335Z" fill="#7F3A54"/>
<path d="M15.1273 36.0001V25.8182H21.9881V27.5931H17.28V30.0192H21.6351V31.7941H17.28V34.2252H22.008V36.0001H15.1273Z" fill="#7F3A54"/>
<path d="M28.6948 36.0001H26.388L29.9029 25.8182H32.677L36.187 36.0001H33.8801L31.3297 28.1449H31.2502L28.6948 36.0001ZM28.5506 31.9979H33.9995V33.6783H28.5506V31.9979Z" fill="#7F3A54"/>
<path d="M37.4125 36.0001V25.8182H41.4295C42.1985 25.8182 42.8547 25.9558 43.3983 26.2309C43.9451 26.5027 44.3611 26.8888 44.6461 27.3893C44.9345 27.8864 45.0787 28.4714 45.0787 29.1442C45.0787 29.8204 44.9328 30.402 44.6412 30.8893C44.3495 31.3732 43.9269 31.7444 43.3734 32.0029C42.8232 32.2614 42.157 32.3907 41.3748 32.3907H38.6852V30.6606H41.0268C41.4378 30.6606 41.7792 30.6042 42.051 30.4915C42.3227 30.3788 42.5249 30.2098 42.6575 29.9844C42.7934 29.7591 42.8613 29.479 42.8613 29.1442C42.8613 28.8062 42.7934 28.5211 42.6575 28.2891C42.5249 28.0571 42.3211 27.8814 42.046 27.7621C41.7742 27.6395 41.4312 27.5782 41.0169 27.5782H39.5652V36.0001H37.4125ZM42.911 31.3665L45.4416 36.0001H43.0652L40.5893 31.3665H42.911Z" fill="#7F3A54"/>
<path d="M46.6 36.0001V25.8182H53.4608V27.5931H48.7527V30.0192H53.1078V31.7941H48.7527V34.2252H53.4806V36.0001H46.6Z" fill="#7F3A54"/>
<path d="M58.4125 36.0001V25.8182H60.5652V30.0192H64.9352V25.8182H67.0829V36.0001H64.9352V31.7941H60.5652V36.0001H58.4125Z" fill="#7F3A54"/>
<path d="M68.8578 36.0001V25.8182H75.7186V27.5931H71.0105V30.0192H75.3656V31.7941H71.0105V34.2252H75.7385V36.0001H68.8578Z" fill="#7F3A54"/>
<path d="M77.43 36.0001V25.8182H81.4471C82.216 25.8182 82.8723 25.9558 83.4158 26.2309C83.9627 26.5027 84.3787 26.8888 84.6637 27.3893C84.9521 27.8864 85.0962 28.4714 85.0962 29.1442C85.0962 29.8204 84.9504 30.402 84.6587 30.8893C84.3671 31.3732 83.9445 31.7444 83.391 32.0029C82.8408 32.2614 82.1746 32.3907 81.3924 32.3907H78.7028V30.6606H81.0444C81.4554 30.6606 81.7968 30.6042 82.0685 30.4915C82.3403 30.3788 82.5425 30.2098 82.6751 29.9844C82.811 29.7591 82.8789 29.479 82.8789 29.1442C82.8789 28.8062 82.811 28.5211 82.6751 28.2891C82.5425 28.0571 82.3387 27.8814 82.0636 27.7621C81.7918 27.6395 81.4487 27.5782 81.0344 27.5782H79.5827V36.0001H77.43ZM82.9286 31.3665L85.4592 36.0001H83.0827L80.6069 31.3665H82.9286Z" fill="#7F3A54"/>
<path d="M86.6175 36.0001V25.8182H93.4783V27.5931H88.7702V30.0192H93.1254V31.7941H88.7702V34.2252H93.4982V36.0001H86.6175Z" fill="#7F3A54"/>
</svg>
